<?xml version="1.0" encoding="UTF-8"?><svg xmlns="http://www.w3.org/2000/svg" xmlns:xlink="http://www.w3.org/1999/xlink" width="375pt" zoomAndPan="magnify" viewBox="0 0 375 374.999991" height="374.999991pt" preserveAspectRatio="xMidYMid meet" version="1.2"><defs><g/><clipPath xml:id="clip1" id="clip1"><path d="M 78.402344 78.402344 L 296.636719 78.402344 L 296.636719 296.644531 L 78.402344 296.644531 Z M 78.402344 78.402344 "/></clipPath></defs><g xml:id="surface1" id="surface1"><g clip-rule="nonzero" clip-path="url(#clip1)"><path style=" stroke:none;fill-rule:nonzero;fill:rgb(0%,0%,0%);fill-opacity:1;" d="M 89.492188 285.554688 L 285.554688 285.554688 L 285.554688 89.496094 L 89.492188 89.496094 Z M 291.09375 296.644531 L 83.949219 296.644531 C 80.882812 296.644531 78.402344 294.164062 78.402344 291.101562 L 78.402344 83.949219 C 78.402344 80.886719 80.882812 78.40625 83.949219 78.40625 L 291.09375 78.40625 C 294.160156 78.40625 296.640625 80.886719 296.640625 83.949219 L 296.640625 291.101562 C 296.640625 294.164062 294.160156 296.644531 291.09375 296.644531 "/></g><g style="fill:rgb(0%,0%,0%);fill-opacity:1;"><g transform="translate(111.607842, 257.105062)"><path style="stroke:none;" d="M 119.960938 -75.332031 C 121.949219 -76.21875 136.085938 -83.285156 136.085938 -105.601562 C 136.085938 -126.367188 120.621094 -145.585938 84.613281 -145.585938 L 22.753906 -145.585938 C 17.671875 -145.585938 16.347656 -143.15625 16.347656 -139.179688 L 16.347656 -6.40625 C 16.347656 -2.429688 17.671875 0 22.753906 0 L 87.707031 0 C 118.414062 0 140.285156 -14.359375 140.285156 -42.417969 C 140.285156 -66.277344 121.726562 -74.671875 119.960938 -75.332031 Z M 88.148438 -31.371094 L 51.03125 -31.371094 L 51.03125 -114.4375 L 84.613281 -114.4375 C 96.101562 -114.4375 102.949219 -112.007812 102.949219 -102.066406 C 102.949219 -93.449219 97.425781 -88.808594 84.613281 -88.808594 L 81.742188 -88.808594 C 76.660156 -88.808594 75.332031 -86.378906 75.332031 -82.402344 L 75.332031 -65.613281 C 75.332031 -61.636719 76.660156 -59.207031 81.742188 -59.207031 L 86.820312 -59.207031 C 97.425781 -59.207031 105.15625 -56.113281 105.15625 -45.730469 C 105.15625 -35.789062 98.972656 -31.371094 88.148438 -31.371094 Z M 88.148438 -31.371094 "/></g></g></g></svg>