<?xml version="1.0" encoding="UTF-8"?><svg xmlns="http://www.w3.org/2000/svg" xmlns:xlink="http://www.w3.org/1999/xlink" width="1380pt" zoomAndPan="magnify" viewBox="0 0 1380 693.000001" height="693.000001pt" preserveAspectRatio="xMidYMid meet" version="1.2"><defs><g/><clipPath xml:id="clip1" id="clip1"><path d="M 124.757812 237.066406 L 342.679688 237.066406 L 342.679688 454.992188 L 124.757812 454.992188 Z M 124.757812 237.066406 "/></clipPath></defs><g xml:id="surface1" id="surface1"><g style="fill:rgb(0%,0%,0%);fill-opacity:1;"><g transform="translate(359.107161, 407.786567)"><path style="stroke:none;" d="M 66.835938 -125.339844 L 15.246094 -125.339844 L 15.246094 0 L 71.269531 0 C 95.023438 0 107.257812 -18.792969 107.257812 -37.40625 C 107.257812 -49.109375 102.117188 -62.226562 87.933594 -68.253906 C 96.441406 -74.636719 100.34375 -83.679688 100.34375 -92.71875 C 100.34375 -109.207031 87.402344 -125.339844 66.835938 -125.339844 Z M 66.480469 -74.636719 L 32.976562 -74.636719 L 32.976562 -108.320312 L 66.835938 -108.320312 C 76.941406 -108.320312 81.726562 -100.34375 81.726562 -92.011719 C 81.726562 -83.5 76.410156 -74.636719 66.480469 -74.636719 Z M 71.269531 -17.375 L 32.976562 -17.375 L 32.976562 -56.910156 L 71.269531 -56.910156 C 83.324219 -56.910156 89.351562 -46.980469 89.351562 -37.230469 C 89.351562 -27.480469 83.324219 -17.375 71.269531 -17.375 Z M 71.269531 -17.375 "/></g></g><g style="fill:rgb(0%,0%,0%);fill-opacity:1;"><g transform="translate(472.92295, 407.786567)"><path style="stroke:none;" d="M 30.492188 -84.03125 L 30.492188 -95.734375 L 13.296875 -95.734375 L 13.296875 0 L 30.492188 0 L 30.492188 -51.945312 C 30.492188 -69.496094 43.964844 -82.4375 60.097656 -82.4375 C 62.9375 -82.4375 65.949219 -82.082031 68.964844 -81.195312 L 68.964844 -96.441406 C 65.0625 -97.328125 61.339844 -97.859375 57.617188 -97.859375 C 46.980469 -97.859375 37.40625 -93.605469 30.492188 -84.03125 Z M 30.492188 -84.03125 "/></g></g><g style="fill:rgb(0%,0%,0%);fill-opacity:1;"><g transform="translate(547.381874, 407.786567)"><path style="stroke:none;" d="M 112.574219 -47.867188 C 112.574219 -80.839844 87.046875 -97.507812 61.164062 -97.507812 C 35.101562 -97.507812 9.21875 -81.019531 9.21875 -47.867188 C 9.21875 -14.890625 34.925781 1.773438 60.632812 1.773438 C 86.691406 1.773438 112.574219 -14.714844 112.574219 -47.867188 Z M 26.59375 -47.867188 C 26.59375 -70.738281 43.789062 -82.082031 61.164062 -82.082031 C 78.183594 -82.082031 95.378906 -70.558594 95.378906 -47.867188 C 95.378906 -25.351562 78.183594 -13.828125 60.984375 -13.828125 C 43.789062 -13.828125 26.59375 -25.175781 26.59375 -47.867188 Z M 26.59375 -47.867188 "/></g></g><g style="fill:rgb(0%,0%,0%);fill-opacity:1;"><g transform="translate(670.416389, 407.786567)"><path style="stroke:none;" d="M 112.574219 -47.867188 C 112.574219 -80.839844 87.046875 -97.507812 61.164062 -97.507812 C 35.101562 -97.507812 9.21875 -81.019531 9.21875 -47.867188 C 9.21875 -14.890625 34.925781 1.773438 60.632812 1.773438 C 86.691406 1.773438 112.574219 -14.714844 112.574219 -47.867188 Z M 26.59375 -47.867188 C 26.59375 -70.738281 43.789062 -82.082031 61.164062 -82.082031 C 78.183594 -82.082031 95.378906 -70.558594 95.378906 -47.867188 C 95.378906 -25.351562 78.183594 -13.828125 60.984375 -13.828125 C 43.789062 -13.828125 26.59375 -25.175781 26.59375 -47.867188 Z M 26.59375 -47.867188 "/></g></g><g style="fill:rgb(0%,0%,0%);fill-opacity:1;"><g transform="translate(793.450904, 407.786567)"><path style="stroke:none;" d="M 107.257812 -36.519531 L 89.351562 -36.519531 C 85.097656 -21.273438 72.332031 -13.828125 59.214844 -13.828125 C 42.726562 -13.828125 26.414062 -24.996094 26.414062 -48.042969 C 26.414062 -70.914062 42.902344 -82.082031 59.035156 -82.082031 C 72.15625 -82.082031 85.097656 -74.636719 89.351562 -59.390625 L 107.257812 -59.390625 C 102.46875 -84.917969 80.664062 -97.507812 58.859375 -97.507812 C 33.859375 -97.507812 9.042969 -81.195312 9.042969 -48.042969 C 9.042969 -15.070312 33.683594 1.417969 58.503906 1.417969 C 80.308594 1.417969 102.46875 -10.8125 107.257812 -36.519531 Z M 107.257812 -36.519531 "/></g></g><g style="fill:rgb(0%,0%,0%);fill-opacity:1;"><g transform="translate(909.571377, 407.786567)"><path style="stroke:none;" d="M 112.574219 -47.867188 C 112.574219 -80.839844 87.046875 -97.507812 61.164062 -97.507812 C 35.101562 -97.507812 9.21875 -81.019531 9.21875 -47.867188 C 9.21875 -14.890625 34.925781 1.773438 60.632812 1.773438 C 86.691406 1.773438 112.574219 -14.714844 112.574219 -47.867188 Z M 26.59375 -47.867188 C 26.59375 -70.738281 43.789062 -82.082031 61.164062 -82.082031 C 78.183594 -82.082031 95.378906 -70.558594 95.378906 -47.867188 C 95.378906 -25.351562 78.183594 -13.828125 60.984375 -13.828125 C 43.789062 -13.828125 26.59375 -25.175781 26.59375 -47.867188 Z M 26.59375 -47.867188 "/></g></g><g style="fill:rgb(0%,0%,0%);fill-opacity:1;"><g transform="translate(1032.605915, 407.786567)"><path style="stroke:none;" d="M 107.613281 -124.097656 L 90.238281 -124.097656 L 90.238281 -83.5 C 81.90625 -94.847656 69.851562 -97.507812 57.972656 -97.507812 C 25.527344 -97.507812 7.089844 -75.878906 7.089844 -48.398438 C 7.089844 -19.855469 24.640625 1.59375 58.148438 1.59375 C 70.203125 1.417969 83.324219 -2.480469 90.238281 -12.941406 L 90.238281 0 L 107.613281 0 Z M 90.238281 -48.042969 C 90.238281 -24.996094 74.105469 -13.828125 57.792969 -13.828125 C 36.699219 -13.828125 24.464844 -28.367188 24.464844 -48.042969 C 24.464844 -65.242188 36.699219 -82.261719 57.972656 -82.261719 C 74.105469 -82.261719 90.238281 -70.914062 90.238281 -48.042969 Z M 90.238281 -48.042969 "/></g></g><g style="fill:rgb(0%,0%,0%);fill-opacity:1;"><g transform="translate(1153.867575, 407.786567)"><path style="stroke:none;" d="M 107.433594 -52.121094 C 105.484375 -82.261719 82.082031 -97.328125 58.328125 -97.328125 C 32.976562 -97.328125 8.507812 -80.839844 8.507812 -47.867188 C 8.507812 -14.890625 33.328125 1.773438 57.972656 1.773438 C 77.652344 1.773438 97.328125 -8.6875 104.597656 -29.605469 L 86.691406 -29.605469 C 81.019531 -18.792969 70.027344 -13.652344 58.148438 -13.652344 C 43.789062 -13.652344 25.882812 -24.996094 25.882812 -43.789062 L 107.078125 -43.789062 C 107.433594 -45.382812 107.613281 -47.15625 107.613281 -49.109375 C 107.613281 -50.171875 107.613281 -51.058594 107.433594 -52.121094 Z M 89.175781 -58.148438 L 26.59375 -58.148438 C 30.136719 -75.167969 44.320312 -82.082031 58.328125 -82.082031 C 72.15625 -82.082031 85.804688 -75.347656 89.175781 -58.148438 Z M 89.175781 -58.148438 "/></g></g><g clip-rule="nonzero" clip-path="url(#clip1)"><path style=" stroke:none;fill-rule:nonzero;fill:rgb(0%,0%,0%);fill-opacity:1;" d="M 135.832031 443.917969 L 331.609375 443.917969 L 331.609375 248.140625 L 135.832031 248.140625 Z M 337.144531 454.992188 L 130.296875 454.992188 C 127.238281 454.992188 124.757812 452.515625 124.757812 449.457031 L 124.757812 242.605469 C 124.757812 239.546875 127.238281 237.066406 130.296875 237.066406 L 337.144531 237.066406 C 340.203125 237.066406 342.679688 239.546875 342.679688 242.605469 L 342.679688 449.457031 C 342.679688 452.515625 340.203125 454.992188 337.144531 454.992188 "/></g><g style="fill:rgb(0%,0%,0%);fill-opacity:1;"><g transform="translate(157.916096, 415.509782)"><path style="stroke:none;" d="M 119.785156 -75.226562 C 121.773438 -76.109375 135.890625 -83.167969 135.890625 -105.449219 C 135.890625 -126.183594 120.449219 -145.375 84.492188 -145.375 L 22.722656 -145.375 C 17.648438 -145.375 16.324219 -142.949219 16.324219 -138.980469 L 16.324219 -6.398438 C 16.324219 -2.425781 17.648438 0 22.722656 0 L 87.578125 0 C 118.242188 0 140.082031 -14.339844 140.082031 -42.355469 C 140.082031 -66.179688 121.550781 -74.5625 119.785156 -75.226562 Z M 88.019531 -31.324219 L 50.960938 -31.324219 L 50.960938 -114.273438 L 84.492188 -114.273438 C 95.960938 -114.273438 102.800781 -111.84375 102.800781 -101.917969 C 102.800781 -93.316406 97.285156 -88.683594 84.492188 -88.683594 L 81.621094 -88.683594 C 76.546875 -88.683594 75.226562 -86.253906 75.226562 -82.285156 L 75.226562 -65.519531 C 75.226562 -61.546875 76.546875 -59.121094 81.621094 -59.121094 L 86.695312 -59.121094 C 97.285156 -59.121094 105.007812 -56.03125 105.007812 -45.664062 C 105.007812 -35.738281 98.828125 -31.324219 88.019531 -31.324219 Z M 88.019531 -31.324219 "/></g></g></g></svg>